<?xml version="1.0" encoding="UTF-8"?>
<svg width="20px" height="16px" viewBox="0 0 20 16" version="1.1" xmlns="http://www.w3.org/2000/svg" xmlns:xlink="http://www.w3.org/1999/xlink">
    <title>返回 (1)</title>
    <defs>
        <filter id="filter-1">
            <feColorMatrix in="SourceGraphic" type="matrix" values="0 0 0 0 0.188235 0 0 0 0 0.411765 0 0 0 0 0.780392 0 0 0 1.000000 0"></feColorMatrix>
        </filter>
    </defs>
    <g id="新设计稿" stroke="none" stroke-width="1" fill="none" fill-rule="evenodd">
        <g id="返回-(1)" transform="translate(-398.000000, -178.000000)">
            <g transform="translate(398.000000, 178.000000)">
                <path d="M19.7122092,16 C18.5033365,12.2226008 15.0016202,9.52413401 10.8709332,9.44690517 C10.3557126,9.43781942 9.86948698,9.4491766 9.40779572,9.48097672 L9.40779572,13.2129472 C9.41002612,13.2243044 9.41225651,13.2356616 9.41225651,13.2470187 C9.41225651,13.3378762 9.33865356,13.4128336 9.24943785,13.4128336 C9.18921726,13.4128336 9.13791823,13.3810335 9.11115352,13.3333333 L9.11115352,13.3492334 L0.115980412,6.94605338 L0.162818655,6.94605338 C0.0736029537,6.94605338 0,6.87109597 0,6.7802385 C0,6.71436684 0.0379166731,6.65758092 0.091446094,6.63032368 L9.10892312,0.213515048 L9.10892312,0.229415105 C9.13791823,0.181714935 9.18921726,0.149914821 9.24720746,0.149914821 C9.33642316,0.149914821 9.41002612,0.224872232 9.41002612,0.315729699 C9.41002612,0.327086882 9.40779572,0.338444066 9.40556533,0.349801249 L9.40556533,3.97047132 C9.81818795,3.95002839 10.2508841,3.94321408 10.7058842,3.95229983 C15.8380174,4.04088586 19.9999655,8.42475866 19.9999655,13.6536059 C20.0021603,14.4599659 19.8995622,15.2481545 19.7122092,16 Z M9.46218298,0.0309142533 L9.46218298,0.0509142533 L9.42218298,0.0509142533 L9.46218298,0.0309142533 Z M9.45829817,13.6045769 L9.42829817,13.5845769 L9.45829817,13.5845769 L9.45829817,13.6045769 Z" id="形状" fill="#1890ff" fill-rule="nonzero"></path>
            </g>
        </g>
    </g>
</svg>